<svg width="8" height="10" viewBox="0 0 8 10" fill="none" xmlns="http://www.w3.org/2000/svg">
<path fill-rule="evenodd" clip-rule="evenodd" d="M0.19355 4.39515L0.146447 4.35355C-0.0337953 4.17331 -0.0476602 3.8897 0.104852 3.69355L0.146447 3.64645L3.64645 0.146447L3.66843 0.125748L3.70235 0.0981673L3.75797 0.0623356L3.81433 0.0356127L3.867 0.0179225L3.94095 0.00345361L4 0L4.03762 0.00139391L4.10036 0.01012L4.15607 0.0248691L4.21161 0.0468367L4.26035 0.0729977L4.31272 0.109844L4.35355 0.146447L7.85355 3.64645C8.04882 3.84171 8.04882 4.15829 7.85355 4.35355C7.67331 4.5338 7.3897 4.54766 7.19355 4.39515L7.14645 4.35355L4.5 1.708V9.5C4.5 9.77614 4.27614 10 4 10C3.72386 10 3.5 9.77614 3.5 9.5V1.707L0.853553 4.35355C0.673311 4.5338 0.389696 4.54766 0.19355 4.39515L0.146447 4.35355L0.19355 4.39515Z" fill="white"/>
</svg>
