<svg width="20" height="20" viewBox="0 0 20 20" fill="none" xmlns="http://www.w3.org/2000/svg">
<g clip-path="url(#clip0)">
<path d="M14.9917 4.56975L15.4337 4.12793L15.8755 4.56975L15.4337 5.01156L14.9917 4.56975Z" fill="white"/>
<path d="M5.71912 13.8427L10.0933 9.46851L10.5352 9.91032L6.16093 14.2846L5.71912 13.8427Z" fill="white"/>
<path d="M1.25317 17.813H8.12698V18.4379H1.25317V17.813Z" fill="white"/>
<path d="M1.25317 16.5632H2.50296V17.1881H1.25317V16.5632Z" fill="white"/>
<path d="M3.12781 16.5632H4.37759V17.1881H3.12781V16.5632Z" fill="white"/>
<path d="M5.00256 16.5632H8.12702V17.1881H5.00256V16.5632Z" fill="white"/>
<path d="M17.7757 6.647C19.4397 4.99354 20.2404 2.66027 19.9418 0.333555L19.9107 0.092203L19.6695 0.0610805C17.3428 -0.236567 15.01 0.56438 13.3568 2.22852L12.2263 3.35915L10.238 3.13824L7.25969 6.11654L8.80636 7.66321L10.1317 6.33745L10.5848 6.79056L9.24817 8.12715H1.25381C0.563623 8.12715 0.00402832 8.68674 0.00402832 9.37693V18.7503C0.00402832 19.4405 0.563623 20.0001 1.25381 20.0001H15.0014C15.6918 20.0001 16.2512 19.4405 16.2512 18.7503V10.3808L16.8659 9.76627L16.645 7.77809L17.7757 6.647ZM19.3479 0.655917C19.4629 1.90539 19.2361 3.16265 18.6917 4.29313L15.711 1.31208C16.8416 0.76805 18.0986 0.541344 19.3479 0.655917ZM9.68984 5.89564L8.80636 6.77958L8.14332 6.11654L10.4673 3.79227L11.6605 3.925L10.5794 5.00574L9.68984 5.89564ZM11.0266 7.23222L11.6783 7.88412L10.7944 8.7676L11.2362 9.20942L12.1201 8.32578L12.7719 8.97768L10.1695 11.5796L10.6113 12.0214L13.2137 9.41934L13.6667 9.87245L12.341 11.1982L13.8876 12.7444L14.3765 12.2552V15.001H1.8787V10.0018H7.3735L6.73259 10.6423L7.17441 11.0841L11.0266 7.23222ZM15.6263 18.7503C15.6263 19.0954 15.3467 19.3752 15.0014 19.3752H1.25381C0.908717 19.3752 0.628919 19.0954 0.628919 18.7503V9.37693C0.628919 9.03184 0.908717 8.75204 1.25381 8.75204H8.62328L7.99839 9.37693H1.25381V15.6258H15.0014V11.6306L15.6263 11.0057V18.7503ZM13.8876 11.8608L13.2245 11.1982L14.1085 10.3143L16.0788 8.34363L16.2112 9.53682L13.8876 11.8608ZM14.1085 9.43033L12.562 7.88412L13.8876 6.55836L13.4457 6.11654L12.1201 7.442L10.5735 5.89564L13.7986 2.67034C14.2011 2.26818 14.6511 1.91668 15.1386 1.62331L18.3809 4.86554C18.0874 5.35282 17.7359 5.80273 17.3339 6.20533L14.1085 9.43033Z" fill="white"/>
<path d="M7.28101 2.59454L9.78072 0.0949707L10.2225 0.536788L7.72282 3.03635L7.28101 2.59454Z" fill="white"/>
<path d="M4.78149 2.59449L6.65617 0.719971L7.09799 1.16179L5.22331 3.03646L4.78149 2.59449Z" fill="white"/>
<path d="M16.9669 12.2803L19.4666 9.78076L19.9084 10.2226L17.4089 12.7221L16.9669 12.2803Z" fill="white"/>
<path d="M16.9669 14.7798L18.8414 12.9053L19.2834 13.3471L17.4087 15.2218L16.9669 14.7798Z" fill="white"/>
<path d="M5.40649 11.9679L6.29028 11.0842L6.7321 11.526L5.84831 12.4098L5.40649 11.9679Z" fill="white"/>
<path d="M8.84363 12.9051L9.72742 12.0215L10.1692 12.4633L9.28545 13.3471L8.84363 12.9051Z" fill="white"/>
<path d="M9.06445 18.7503H14.376V16.2507H9.06445V18.7503ZM12.5013 16.8756H13.7511V18.1254H12.5013V16.8756ZM9.68934 16.8756H11.8765V18.1254H9.68934V16.8756Z" fill="white"/>
</g>
<defs>
<clipPath id="clip0">
<rect width="20" height="20" fill="white"/>
</clipPath>
</defs>
</svg>
