<!-- by TradingView --><svg width="18" height="18" fill="none" xmlns="http://www.w3.org/2000/svg"><path fill="#FFCA30" d="M0 0h18v18H0z"/><circle cx="9" cy="9" r="9" fill="#FFCA30"/><path fill-rule="evenodd" clip-rule="evenodd" d="M11.833 10.403l-1 .916V5.333h1v5.07zM13 6.667v2.666l-1 .917V6.667h1zM9.5 3h-1v5h1V3zm-3.333 7.403l1 .916V5.333h-1v5.07zM6 10.25V6.667H5v2.666l1 .917zm1.333-.917v-5h1v5h-1zm2.334 0v-5h1v5h-1z" fill="#000"/><path fill-rule="evenodd" clip-rule="evenodd" d="M8.5 15V8.334h1V15h-1zm-1.167 0V9.667h1V15h-1zm2.334-5.333V15h1V9.667h-1z" fill="#fff"/></svg>