<svg width="36" height="35" viewBox="0 0 36 35" fill="none" xmlns="http://www.w3.org/2000/svg">
<path d="M34.2854 17.0351H28.7419V1.21109C28.7419 0.939935 28.5594 0.6954 28.2796 0.591605C27.9996 0.487743 27.6774 0.545273 27.4633 0.736905L25.3414 2.63632L23.2198 0.736972C22.9273 0.475138 22.453 0.475138 22.1604 0.736972L20.0387 2.63639L17.9171 0.736972C17.6246 0.475138 17.1504 0.475138 16.8578 0.736972L14.736 2.63639L12.6142 0.736972C12.3217 0.475138 11.8474 0.475138 11.555 0.736972L9.43318 2.63639L7.31156 0.736972C7.01907 0.475138 6.54481 0.475138 6.25225 0.736972L4.13048 2.63639L2.00878 0.736972C1.71809 0.476747 1.24794 0.475406 0.95471 0.733284C0.800715 0.868794 0.72604 1.04936 0.731208 1.22872V31.3841C0.731208 33.3066 2.47833 34.8706 4.62587 34.8706H31.1387C31.1389 34.8706 31.1389 34.8706 31.1391 34.8706C31.1393 34.8706 31.1395 34.8706 31.1398 34.8706C33.2873 34.8706 35.0344 33.3066 35.0344 31.3841V17.7056C35.0344 17.3352 34.6991 17.0351 34.2854 17.0351ZM4.62587 33.5296C3.30425 33.5296 2.22914 32.5671 2.22914 31.384V2.8307L3.60086 4.05868C3.89334 4.32051 4.36761 4.32051 4.66017 4.05868L6.78194 2.15926L8.90371 4.05868C9.1962 4.32051 9.67047 4.32051 9.96303 4.05868L12.0848 2.15926L14.2066 4.05868C14.4991 4.32051 14.9734 4.32051 15.2659 4.05868L17.3877 2.15926L19.5094 4.05868C19.8019 4.32051 20.2762 4.32051 20.5687 4.05868L22.6905 2.15926L24.8123 4.05868C25.1048 4.32051 25.5791 4.32051 25.8715 4.05868L27.2444 2.82977V17.7056C27.2444 17.7117 27.2452 17.7176 27.2454 17.7237V31.384C27.2454 32.1928 27.5555 32.9375 28.0736 33.5296H4.62587ZM33.5364 31.384C33.5364 32.5671 32.4612 33.5296 31.1397 33.5296C29.8182 33.5296 28.743 32.5671 28.743 31.384V18.3761H33.5364V31.384Z" fill="white"/>
</svg>
