<svg width="41" height="33" viewBox="0 0 41 33" fill="none" xmlns="http://www.w3.org/2000/svg">
<path d="M40.25 12.6737C40.2057 12.4936 40.0589 12.3476 39.8635 12.2893L26.4938 8.29979C26.1873 8.20843 25.8558 8.35664 25.7536 8.63106C25.6514 8.90555 25.8171 9.20225 26.1238 9.29367L37.2917 12.6262L23.0181 14.8484L4.35221 2.79701L23.6246 8.54794C23.9311 8.63923 24.2626 8.49116 24.3648 8.21667C24.467 7.94218 24.3013 7.64548 23.9947 7.55405L1.08712 0.718367C1.07931 0.716062 1.07378 0.715573 1.06707 0.714037C0.901037 0.670314 0.716986 0.692106 0.567264 0.785767C0.337337 0.929368 0.253542 1.19876 0.367375 1.42806L15.8779 32.6695C15.9551 32.8251 16.1118 32.9372 16.2982 32.9706C16.3363 32.9773 16.3746 32.9807 16.4126 32.9807C16.561 32.9807 16.7056 32.9301 16.8153 32.8369L23.2875 27.3412L29.0256 30.5855C29.0282 30.587 29.0312 30.5874 29.0339 30.5884C29.1241 30.6377 29.2282 30.6665 29.3377 30.6665C29.3596 30.6665 29.3816 30.6653 29.4038 30.6631C29.6736 30.6358 29.887 30.4459 29.9191 30.2045L31.1865 20.6604L40.0794 13.1677C40.2295 13.0414 40.2942 12.8537 40.25 12.6737ZM37.8571 13.6015L30.5813 19.7316L24.345 15.7051L37.8571 13.6015ZM25.9079 23.6722L17.4452 30.858L20.6187 19.0766L25.9079 23.6722ZM26.5045 24.6095L28.215 28.8881L24.1635 26.5973L26.5045 24.6095ZM29.0507 27.8693L27.3039 23.5C27.3027 23.4971 27.3009 23.4944 27.2997 23.4915C27.2696 23.4202 27.2228 23.3547 27.1605 23.3006L18.5009 15.7765C18.2691 15.5751 17.8986 15.58 17.6735 15.7875C17.4484 15.9952 17.4539 16.3268 17.6858 16.5282L19.6432 18.229L16.2477 30.8346L2.66563 3.47758L16.0055 15.0682C16.2373 15.2697 16.6078 15.2648 16.8329 15.0572C17.058 14.8495 17.0524 14.5179 16.8206 14.3165L7.06554 5.84063L30.0089 20.6539L29.0507 27.8693Z" fill="white"/>
</svg>
