<svg width="24" height="24" viewBox="0 0 24 24" fill="none" xmlns="http://www.w3.org/2000/svg">
<path d="M11.9999 2.24951C6.62378 2.24951 2.24988 6.62342 2.24988 11.9995C2.24988 17.3756 6.62378 21.7495 11.9999 21.7495C17.376 21.7495 21.7499 17.3756 21.7499 11.9995C21.7499 6.62342 17.376 2.24951 11.9999 2.24951ZM11.9999 17.2453C11.8145 17.2453 11.6332 17.1903 11.479 17.0873C11.3249 16.9843 11.2047 16.8379 11.1337 16.6666C11.0628 16.4952 11.0442 16.3067 11.0804 16.1249C11.1166 15.943 11.2059 15.776 11.337 15.6449C11.4681 15.5138 11.6351 15.4245 11.817 15.3883C11.9988 15.3521 12.1873 15.3707 12.3586 15.4417C12.5299 15.5126 12.6764 15.6328 12.7794 15.7869C12.8824 15.9411 12.9374 16.1224 12.9374 16.3078C12.9374 16.5564 12.8386 16.7949 12.6628 16.9707C12.487 17.1465 12.2485 17.2453 11.9999 17.2453ZM13.018 7.81638L12.7489 13.5351C12.7489 13.734 12.6699 13.9248 12.5293 14.0655C12.3886 14.2061 12.1978 14.2851 11.9989 14.2851C11.8 14.2851 11.6093 14.2061 11.4686 14.0655C11.328 13.9248 11.2489 13.734 11.2489 13.5351L10.9799 7.8192V7.81685C10.974 7.67948 10.9959 7.54232 11.0445 7.41366C11.093 7.285 11.167 7.16748 11.2621 7.06819C11.3572 6.96889 11.4715 6.88988 11.5979 6.8359C11.7244 6.78192 11.8605 6.75409 11.998 6.75409C12.1355 6.75409 12.2716 6.78192 12.3981 6.8359C12.5245 6.88988 12.6388 6.96889 12.7339 7.06819C12.829 7.16748 12.903 7.285 12.9515 7.41366C13.0001 7.54232 13.022 7.67948 13.0161 7.81685L13.018 7.81638Z" fill="white"/>
</svg>
